<svg xmlns="http://www.w3.org/2000/svg" enable-background="new 0 0 64 64" viewBox="0 0 64 64"><path fill="#58595b" d="M46.4785156 18.922657c-.0643959.6573277-.1742058 1.3035641-.3257942 1.936264 7.3731194 1.6863804 11.8916817 4.5614052 11.8916817 7.2390881 0 3.8769436-8.5939369 7.5162868-19.9894981 8.4652462-.5385513.0448494-.9376945.5171814-.8928146 1.0548744.0439262.5367432.5022697.9384651 1.0551453.892662C49.0599174 37.6076355 60 34.0379486 60 28.0980091 60 24.1494427 54.63834 20.7667198 46.4785156 18.922657zM4 28.0980091c0 5.6355457 10.9188347 10.1191235 25.3131409 10.619009l-1.7552509 1.350563c-.4282646.3292007-.5079975.9427528-.1785641 1.3702393.1928864.2500038.4826946.3812065.7753658.3812065.2086411 0 .4182377-.0663185.5958462-.2027702l3.7904015-2.9165344c.2745285-.2103996.4339943-.5291061.4368591-.8750076.000061-.0082893-.002388-.0160408-.0025063-.0242691.000061-.0044136.0025063-.0080528.0025063-.0124664 0-.0137749-.0073395-.0251656-.0078773-.0388222-.0060272-.1041908-.0270958-.2043228-.0607529-.3006363-.0073433-.0195618-.0115776-.0394821-.0201149-.058445-.0713768-.1724739-.1815453-.328186-.333313-.4489555l-3.7488651-2.9728317c-.4220581-.3354034-1.0370026-.2652664-1.3735981.1579247-.33564.4227104-.2649784 1.03722.1580334 1.3726234l1.5881481 1.2594948C15.3570662 36.238945 5.9555979 31.9617729 5.9555979 28.0980091c0-2.676609 4.5151587-5.5503216 11.8830271-7.2370014-.1499767-.6324596-.2480297-1.2816181-.3117085-1.9394855C9.364049 20.7652893 4 24.1486073 4 28.0980091zM29.2704697 6.8936276c0 .1908412.1628075.351625.3556938.351625h4.747673c.1928864 0 .3561707-.1607838.3561707-.351625V4.7919278C33.8377304 4.6044259 32.9214592 4.5 31.9871082 4.5c-.1685352 0-.3375492.0033398-.5065632.009542-.7537003.0289245-1.4903316.1353784-2.2100754.2933588V6.8936276z"/><path fill="#58595b" d="M41.0900269,8.1571941c-1.4100342-1.3599854-3.0800171-2.3500366-4.8900146-2.960022v1.7000122
		c0,1-0.8200073,1.8099976-1.8300171,1.8099976h-4.7399902c-1.0100098,0-1.8300171-0.8099976-1.8300171-1.8099976V5.2071819
		c-5.0100098,1.75-8.7399902,6.5200195-8.8800049,11.9899902c-0.1499634,5.9799805,3.7900391,11.2700195,9.5900269,12.8699951
		c0.1900024,0.0499878,0.3900146,0.0800171,0.6099854,0.0800171h5.7600098c0.2199707,0,0.4199829-0.0300293,0.6099854-0.0800171
		c5.6500244-1.5599976,9.6000366-6.7099609,9.6000366-12.539978C45.0900269,13.9571819,43.6699829,10.6371746,41.0900269,8.1571941z
		 M32,25.7171917c-4.039978,0-7.3400269-3.2800293-7.3400269-7.3099976c0-4.0300293,3.3000488-7.3099976,7.3400269-7.3099976
		s7.3400269,3.2799683,7.3400269,7.3099976C39.3400269,22.4371624,36.039978,25.7171917,32,25.7171917z"/><path fill="#58595b" d="M34.5999756,18.4071941c0,1.4299927-1.1699829,2.5899658-2.5999756,2.5899658
		s-2.5999756-1.1599731-2.5999756-2.5899658S30.5700073,15.8171673,32,15.8171673S34.5999756,16.9772015,34.5999756,18.4071941z"/><path fill="#58595b" d="M32 12.5671673c-3.2399902 0-5.8699951 2.6199951-5.8699951 5.8400269 0 3.2199707 2.6300049 5.8399658 5.8699951 5.8399658s5.8699951-2.6199951 5.8699951-5.8399658C37.8699951 15.1871624 35.2399902 12.5671673 32 12.5671673zM32 22.4571819c-2.2399902 0-4.0700073-1.8099976-4.0700073-4.0499878 0-2.2300415 1.8300171-4.0499878 4.0700073-4.0499878s4.0700073 1.8199463 4.0700073 4.0499878C36.0700073 20.6471844 34.2399902 22.4571819 32 22.4571819zM24.9758892 44.4679031h-5.2561474c-.5399857 0-.9777985.4375038-.9777985.977108s.4378128.977108.9777985.977108h4.4788742v4.5849648h-2.722847c-.5399857 0-.9777985.4375038-.9777985.977108s.4378128.977108.9777985.977108h2.722847v4.5844841h-4.4788742c-.5399857 0-.9777985.4375038-.9777985.977108S19.1797562 59.5 19.7197418 59.5h5.2561474c.6497974 0 1.1783237-.5353088 1.1783237-1.1937141V45.6616173C26.154213 45.0032158 25.6256866 44.4679031 24.9758892 44.4679031zM34.039978 51.3071556h-3.9699707V46.417202h4.4400024c.539978 0 .9799805-.4299927.9799805-.9700317 0-.539978-.4400024-.9799805-.9799805-.9799805h-5.1500244c-.6900024 0-1.2399902.539978-1.2399902 1.1900024v12.6499634c0 .6600342.5499878 1.1900024 1.2399902 1.1900024h4.6799927c.6900024 0 1.2400513-.5299683 1.2400513-1.1900024v-5.8099976C35.2800293 51.8371849 34.7299805 51.3071556 34.039978 51.3071556zM33.3300171 57.5472069h-3.2600098v-4.2800293l3.2600098-.0100098V57.5472069zM43.2999878 44.4671898h-3.8999634c-1.0700073 0-1.9500122.8800049-1.9500122 1.9500122v11.1300049c0 1.0799561.8800049 1.9499512 1.9500122 1.9499512h3.8999634c1.0800171 0 1.960022-.8699951 1.960022-1.9499512V46.417202C45.2600098 45.3471947 44.3800049 44.4671898 43.2999878 44.4671898zM43.2999878 57.5472069h-3.8999634V46.417202h3.8999634V57.5472069z"/></svg>