<svg xmlns="http://www.w3.org/2000/svg" width="24" height="24" fill="none" viewBox="0 0 24 24"><path fill="#000" fill-rule="evenodd" d="M12 10.5C11.1716 10.5 10.5 11.1716 10.5 12C10.5 12.8284 11.1716 13.5 12 13.5C12.8284 13.5 13.5 12.8284 13.5 12C13.5 11.1716 12.8284 10.5 12 10.5ZM8.5 12C8.5 10.067 10.067 8.5 12 8.5C13.933 8.5 15.5 10.067 15.5 12C15.5 13.933 13.933 15.5 12 15.5C10.067 15.5 8.5 13.933 8.5 12Z" clip-rule="evenodd"/><path fill="#000" fill-rule="evenodd" d="M8.82789 8.6971C7.05737 10.5181 7.05737 13.4819 8.82789 15.3029L7.39394 16.6971C4.86869 14.0998 4.86869 9.90017 7.39394 7.3029L8.82789 8.6971ZM15.1721 15.3029C16.9426 13.4819 16.9426 10.5181 15.1721 8.6971L16.6061 7.3029C19.1313 9.90017 19.1313 14.0998 16.6061 16.6971L15.1721 15.3029Z" clip-rule="evenodd"/><path fill="#000" fill-rule="evenodd" d="M6.69609 6.70772C3.76797 9.63076 3.76797 14.3692 6.69609 17.2923L5.2831 18.7077C1.5723 15.0033 1.5723 8.99665 5.2831 5.29228L6.69609 6.70772ZM17.3039 17.2923C20.232 14.3692 20.232 9.63077 17.3039 6.70772L18.7169 5.29228C22.4277 8.99665 22.4277 15.0033 18.7169 18.7077L17.3039 17.2923Z" clip-rule="evenodd"/></svg>